HIERARCHY
ROOT Hips
{
	OFFSET 0.000000 97.167313 0.000000
	CHANNELS 6 Xposition Yposition Zposition Xrotation Yrotation Zrotation
	JOINT Spine
	{
		OFFSET 0.000000 13.784798 0.064400
		CHANNELS 3 Xrotation Yrotation Zrotation
		JOINT Spine1
		{
			OFFSET 0.000000 12.037903 0.404700
			CHANNELS 3 Xrotation Yrotation Zrotation
			JOINT Spine2
			{
				OFFSET 0.000000 17.795601 0.420200
				CHANNELS 3 Xrotation Yrotation Zrotation
				JOINT Neck
				{
					OFFSET 0.000000 39.131302 11.954600
					CHANNELS 3 Xrotation Yrotation Zrotation
					JOINT Head
					{
						OFFSET 0.000000 14.456192 15.627699
						CHANNELS 3 Xrotation Yrotation Zrotation
						JOINT HeadTop_End
						{
							OFFSET 0.000000 15.703506 7.603401
							CHANNELS 3 Xrotation Yrotation Zrotation
							End Site
							{
								OFFSET 0.000000 17.447403 0.000000
							}
						}
					}
				}
				JOINT LeftShoulder
				{
					OFFSET 17.399500 24.608795 1.168800
					CHANNELS 3 Xrotation Yrotation Zrotation
					JOINT LeftArm
					{
						OFFSET 18.980635 5.765305 1.818600
						CHANNELS 3 Xrotation Yrotation Zrotation
						JOINT LeftForeArm
						{
							OFFSET 49.290169 0.000000 0.000000
							CHANNELS 3 Xrotation Yrotation Zrotation
							JOINT LeftHand
							{
								OFFSET 31.562012 0.000000 0.000000
								CHANNELS 3 Xrotation Yrotation Zrotation
								JOINT LeftHandThumb1
								{
									OFFSET 6.133995 -4.388519 7.076070
									CHANNELS 3 Xrotation Yrotation Zrotation
									JOINT LeftHandThumb2
									{
										OFFSET 6.037666 -3.485840 3.485847
										CHANNELS 3 Xrotation Yrotation Zrotation
										JOINT LeftHandThumb3
										{
											OFFSET 6.496506 -3.750763 3.750761
											CHANNELS 3 Xrotation Yrotation Zrotation
											JOINT LeftHandThumb4
											{
												OFFSET 5.616882 -3.242905 3.242910
												CHANNELS 3 Xrotation Yrotation Zrotation
												End Site
												{
													OFFSET -1.254608 7.132141 0.375429
												}
											}
										}
									}
								}
								JOINT LeftHandPinky1
								{
									OFFSET 18.920792 -0.453171 -11.426712
									CHANNELS 3 Xrotation Yrotation Zrotation
									JOINT LeftHandPinky2
									{
										OFFSET 4.919586 0.000000 0.000000
										CHANNELS 3 Xrotation Yrotation Zrotation
										JOINT LeftHandPinky3
										{
											OFFSET 5.233047 0.000000 0.000000
											CHANNELS 3 Xrotation Yrotation Zrotation
											JOINT LeftHandPinky4
											{
												OFFSET 5.571716 0.000000 0.000000
												CHANNELS 3 Xrotation Yrotation Zrotation
												End Site
												{
													OFFSET -3.459808 4.342407 -0.466164
												}
											}
										}
									}
								}
								JOINT LeftHandRing1
								{
									OFFSET 22.726120 -0.094986 -6.500475
									CHANNELS 3 Xrotation Yrotation Zrotation
									JOINT LeftHandRing2
									{
										OFFSET 6.408615 0.000000 0.000000
										CHANNELS 3 Xrotation Yrotation Zrotation
										JOINT LeftHandRing3
										{
											OFFSET 6.150223 0.000000 0.000000
											CHANNELS 3 Xrotation Yrotation Zrotation
											JOINT LeftHandRing4
											{
												OFFSET 6.145386 0.000000 0.000000
												CHANNELS 3 Xrotation Yrotation Zrotation
												End Site
												{
													OFFSET -3.671402 4.923981 -0.202372
												}
											}
										}
									}
								}
								JOINT LeftHandMiddle1
								{
									OFFSET 23.373947 0.000000 0.000001
									CHANNELS 3 Xrotation Yrotation Zrotation
									JOINT LeftHandMiddle2
									{
										OFFSET 6.996567 0.000000 0.000000
										CHANNELS 3 Xrotation Yrotation Zrotation
										JOINT LeftHandMiddle3
										{
											OFFSET 7.015945 0.000000 0.000000
											CHANNELS 3 Xrotation Yrotation Zrotation
											JOINT LeftHandMiddle4
											{
												OFFSET 7.721573 0.000000 0.000000
												CHANNELS 3 Xrotation Yrotation Zrotation
												End Site
												{
													OFFSET -4.651108 6.158463 0.251582
												}
											}
										}
									}
								}
								JOINT LeftHandIndex1
								{
									OFFSET 21.310577 -0.490082 6.209344
									CHANNELS 3 Xrotation Yrotation Zrotation
									JOINT LeftHandIndex2
									{
										OFFSET 7.536453 0.000000 0.000000
										CHANNELS 3 Xrotation Yrotation Zrotation
										JOINT LeftHandIndex3
										{
											OFFSET 7.512344 0.000000 0.000000
											CHANNELS 3 Xrotation Yrotation Zrotation
											JOINT LeftHandIndex4
											{
												OFFSET 10.212402 0.000000 0.000001
												CHANNELS 3 Xrotation Yrotation Zrotation
												End Site
												{
													OFFSET -5.180801 8.690506 1.388433
												}
											}
										}
									}
								}
							}
						}
					}
				}
				JOINT RightShoulder
				{
					OFFSET -17.399500 24.608795 1.168800
					CHANNELS 3 Xrotation Yrotation Zrotation
					JOINT RightArm
					{
						OFFSET -18.980635 5.765305 1.818600
						CHANNELS 3 Xrotation Yrotation Zrotation
						JOINT RightForeArm
						{
							OFFSET -49.290169 0.000000 0.000000
							CHANNELS 3 Xrotation Yrotation Zrotation
							JOINT RightHand
							{
								OFFSET -31.562012 0.000000 0.000000
								CHANNELS 3 Xrotation Yrotation Zrotation
								JOINT RightHandThumb1
								{
									OFFSET -6.133995 -4.388519 7.076070
									CHANNELS 3 Xrotation Yrotation Zrotation
									JOINT RightHandThumb2
									{
										OFFSET -6.037666 -3.485840 3.485847
										CHANNELS 3 Xrotation Yrotation Zrotation
										JOINT RightHandThumb3
										{
											OFFSET -6.496506 -3.750763 3.750761
											CHANNELS 3 Xrotation Yrotation Zrotation
											JOINT RightHandThumb4
											{
												OFFSET -5.616882 -3.242905 3.242910
												CHANNELS 3 Xrotation Yrotation Zrotation
												End Site
												{
													OFFSET 1.254608 7.132141 0.375429
												}
											}
										}
									}
								}
								JOINT RightHandIndex1
								{
									OFFSET -21.310577 -0.490082 6.209344
									CHANNELS 3 Xrotation Yrotation Zrotation
									JOINT RightHandIndex2
									{
										OFFSET -7.536453 0.000000 0.000000
										CHANNELS 3 Xrotation Yrotation Zrotation
										JOINT RightHandIndex3
										{
											OFFSET -7.512344 0.000000 0.000000
											CHANNELS 3 Xrotation Yrotation Zrotation
											JOINT RightHandIndex4
											{
												OFFSET -10.212402 0.000000 0.000001
												CHANNELS 3 Xrotation Yrotation Zrotation
												End Site
												{
													OFFSET 5.180801 8.690506 1.388433
												}
											}
										}
									}
								}
								JOINT RightHandMiddle1
								{
									OFFSET -23.373947 0.000000 0.000001
									CHANNELS 3 Xrotation Yrotation Zrotation
									JOINT RightHandMiddle2
									{
										OFFSET -6.996567 0.000000 0.000000
										CHANNELS 3 Xrotation Yrotation Zrotation
										JOINT RightHandMiddle3
										{
											OFFSET -7.015945 0.000000 0.000000
											CHANNELS 3 Xrotation Yrotation Zrotation
											JOINT RightHandMiddle4
											{
												OFFSET -7.721573 0.000000 0.000000
												CHANNELS 3 Xrotation Yrotation Zrotation
												End Site
												{
													OFFSET 4.651108 6.158463 0.251582
												}
											}
										}
									}
								}
								JOINT RightHandRing1
								{
									OFFSET -22.726120 -0.094986 -6.500475
									CHANNELS 3 Xrotation Yrotation Zrotation
									JOINT RightHandRing2
									{
										OFFSET -6.408615 0.000000 0.000000
										CHANNELS 3 Xrotation Yrotation Zrotation
										JOINT RightHandRing3
										{
											OFFSET -6.150223 0.000000 0.000000
											CHANNELS 3 Xrotation Yrotation Zrotation
											JOINT RightHandRing4
											{
												OFFSET -6.145386 0.000000 0.000000
												CHANNELS 3 Xrotation Yrotation Zrotation
												End Site
												{
													OFFSET 3.671402 4.923981 -0.202372
												}
											}
										}
									}
								}
								JOINT RightHandPinky1
								{
									OFFSET -18.920792 -0.453171 -11.426712
									CHANNELS 3 Xrotation Yrotation Zrotation
									JOINT RightHandPinky2
									{
										OFFSET -4.919586 0.000000 0.000000
										CHANNELS 3 Xrotation Yrotation Zrotation
										JOINT RightHandPinky3
										{
											OFFSET -5.233047 0.000000 0.000000
											CHANNELS 3 Xrotation Yrotation Zrotation
											JOINT RightHandPinky4
											{
												OFFSET -5.571716 0.000000 0.000000
												CHANNELS 3 Xrotation Yrotation Zrotation
												End Site
												{
													OFFSET 3.459808 4.342407 -0.466164
												}
											}
										}
									}
								}
							}
						}
					}
				}
			}
		}
	}
	JOINT LeftUpLeg
	{
		OFFSET 19.899099 -7.885101 -3.429500
		CHANNELS 3 Xrotation Yrotation Zrotation
		JOINT LeftLeg
		{
			OFFSET 1.745560 -36.997807 10.304700
			CHANNELS 3 Xrotation Yrotation Zrotation
			JOINT LeftFoot
			{
				OFFSET -1.745558 -29.803308 -13.615400
				CHANNELS 3 Xrotation Yrotation Zrotation
				JOINT LeftToeBase
				{
					OFFSET 1.181900 -18.539904 15.226099
					CHANNELS 3 Xrotation Yrotation Zrotation
					JOINT LeftToe_End
					{
						OFFSET -0.863701 1.402801 16.534700
						CHANNELS 3 Xrotation Yrotation Zrotation
						End Site
						{
							OFFSET 0.000000 16.616566 0.000000
						}
					}
				}
			}
		}
	}
	JOINT RightUpLeg
	{
		OFFSET -19.899099 -7.885101 -3.429500
		CHANNELS 3 Xrotation Yrotation Zrotation
		JOINT RightLeg
		{
			OFFSET -1.745560 -36.997807 10.304700
			CHANNELS 3 Xrotation Yrotation Zrotation
			JOINT RightFoot
			{
				OFFSET 1.745558 -29.803308 -13.615400
				CHANNELS 3 Xrotation Yrotation Zrotation
				JOINT RightToeBase
				{
					OFFSET -1.181900 -18.539904 15.226099
					CHANNELS 3 Xrotation Yrotation Zrotation
					JOINT RightToe_End
					{
						OFFSET 0.863701 1.402801 16.534700
						CHANNELS 3 Xrotation Yrotation Zrotation
						End Site
						{
							OFFSET 0.000000 16.616566 0.000000
						}
					}
				}
			}
		}
	}
}
MOTION
Frames: 6
Frame Time: 0.033333
-64.876511 82.311081 354.771149 47.636567 -4.409545 -16.631278 11.799446 3.965470 11.897227 8.779747 1.151076 5.723895 8.776750 1.230545 5.706255 6.919938 0.203025 3.451238 -30.365197 4.779292 -1.443293 -0.000003 -0.000000 0.000001 1.507167 -8.248516 11.913503 -32.993188 -19.231415 -1.233045 -0.000006 -7.619994 -0.000001 -15.229232 -6.519819 12.619461 -5.980765 -6.090161 4.621043 9.484906 4.364461 -1.610859 -7.342637 -0.436049 13.140148 -0.000001 0.000001 -0.000002 4.004324 27.427816 -32.918524 1.075788 3.384974 -35.252713 0.039983 0.684034 -6.690446 0.000001 0.000005 -0.000003 1.617329 11.731051 -9.529180 1.075168 3.384125 -35.242379 0.000011 0.007397 -0.072227 -0.000001 0.000003 0.000009 0.078645 2.774589 -4.044764 0.673770 2.729659 -27.726412 0.000016 0.005236 -0.051168 -0.000005 -0.000003 0.000008 1.249884 -9.069655 -5.702437 1.426176 3.832069 -40.815762 -0.000006 0.004756 -0.046471 -0.000003 0.000003 0.000001 -3.105147 20.124929 34.242286 -29.477522 14.975728 8.862946 0.000008 2.224261 0.000017 16.225292 18.959412 2.615862 -6.901949 8.181172 -4.018438 10.039225 -6.155569 0.906882 -5.504761 -5.510954 -14.718511 -0.000002 0.000003 0.000003 1.839584 11.353707 -7.185939 0.645972 -2.368282 30.510069 0.000002 0.000006 0.000006 -0.000003 -0.000002 0.000003 0.102196 -1.573333 -8.732061 0.212459 -1.392020 17.355458 -0.000012 -0.000001 -0.000016 -0.000001 0.000001 -0.000009 -0.427452 -11.490430 -3.315258 0.427304 -1.950459 24.711297 0.000006 -0.000001 0.000007 -0.000001 0.000004 -0.000003 1.022028 -28.923963 19.938405 0.425956 -1.947556 24.672146 0.031397 -0.540426 6.649210 -0.000002 -0.000001 -0.000001 -23.135277 4.778770 -5.321905 13.145267 7.180753 -7.622540 17.494616 0.544375 0.876236 -47.220742 -17.746520 20.267210 -0.000001 0.000000 -0.000000 -97.214383 -4.364569 6.662697 43.493514 -9.766441 3.608981 0.799509 0.322993 6.782030 -0.034245 0.000000 0.000001 -0.000000 0.000000 -0.000000 
-62.363270 80.546844 363.442078 43.805056 -5.436898 -15.083266 11.692449 -0.040616 10.905094 8.406336 -0.168937 5.351684 8.387337 -0.040559 5.376243 7.766968 1.143114 1.878156 -28.820321 8.917374 -1.726048 0.000001 0.000000 0.000001 1.605636 -9.131650 10.525374 -37.396112 -27.542794 -8.497484 0.000009 -8.410685 0.000010 -11.563403 -5.845151 11.129809 -5.992837 -6.112344 4.618448 9.494001 4.339363 -1.616224 -7.338517 -0.427379 13.144510 -0.000001 0.000003 -0.000002 2.524866 28.648395 -25.241273 0.726845 2.828166 -28.820700 0.039594 0.680714 -6.657838 -0.000002 0.000001 -0.000004 0.469257 11.683651 -2.067002 0.727810 2.829929 -28.840341 0.000000 0.002917 -0.028505 -0.000002 0.000002 0.000000 0.073479 2.026722 3.257629 0.405713 2.144051 -21.428038 0.000004 0.002063 -0.020204 -0.000001 -0.000000 0.000004 1.404797 -10.419486 1.491168 1.034429 3.325821 -34.546192 -0.000003 0.001876 -0.018336 -0.000001 0.000003 0.000001 -2.890352 19.534546 33.698412 -27.478302 8.979323 10.246134 -0.000003 3.861782 0.000009 13.256712 20.674848 8.251438 -6.901950 8.181177 -4.018428 10.039231 -6.155580 0.906865 -5.504774 -5.510954 -14.718515 0.000003 -0.000002 0.000003 1.839577 11.353706 -7.185923 0.645972 -2.368269 30.510059 -0.000008 0.000012 0.000018 -0.000001 -0.000003 0.000003 0.102195 -1.573343 -8.732068 0.212463 -1.392020 17.355444 -0.000003 0.000006 -0.000006 -0.000001 0.000003 -0.000004 -0.427469 -11.490429 -3.315267 0.427296 -1.950447 24.711307 -0.000003 0.000000 -0.000007 -0.000003 0.000001 -0.000001 1.022019 -28.923969 19.938381 0.425981 -1.947564 24.672156 0.031389 -0.540423 6.649202 -0.000001 -0.000004 -0.000002 -8.222585 5.631531 -6.684774 5.132516 7.662776 -6.814937 25.517915 8.579257 -5.332556 -31.005251 -2.403564 2.271715 0.000005 0.000000 -0.000000 -89.933763 -7.382773 10.158912 20.813231 -11.254699 5.251270 8.441250 0.603644 11.411148 -1.611357 0.000003 -0.000006 -0.000001 -0.000000 -0.000001 
-60.074509 77.347763 371.078247 39.790643 -2.405917 -13.993728 11.428637 -5.003438 11.332344 7.825448 -1.736258 5.225249 7.805139 -1.527454 5.308399 8.271163 1.720639 0.489188 -27.626934 11.379692 -2.275520 0.000003 0.000000 -0.000000 1.747394 -12.896487 4.193151 -42.547451 -34.576545 -17.397672 0.000010 -9.141308 -0.000008 -12.688192 -4.178289 6.920010 -5.999762 -6.125073 4.616940 9.499211 4.324996 -1.619292 -7.336153 -0.422416 13.147001 -0.000000 0.000002 -0.000001 1.490105 29.363226 -20.786134 0.555786 2.492516 -25.136869 0.039378 0.678798 -6.639159 0.000004 0.000007 -0.000005 -0.216066 11.591464 2.209735 0.557380 2.495923 -25.173627 0.000005 0.000348 -0.003444 -0.000002 -0.000001 0.000001 0.113481 1.599710 7.441868 0.281638 1.796270 -17.820153 0.000001 0.000240 -0.002444 0.000001 -0.000002 0.000009 1.622037 -11.254666 5.614847 0.835700 3.017366 -30.955575 0.000000 0.000214 -0.002222 -0.000001 0.000002 -0.000003 -2.176326 17.346087 31.884371 -26.560891 0.903035 10.581817 0.000006 8.311539 -0.000000 9.109858 18.349267 11.074574 -6.901949 8.181177 -4.018456 10.039234 -6.155572 0.906873 -5.504765 -5.510959 -14.718501 -0.000001 -0.000001 0.000002 1.789465 11.204970 -6.382440 0.659308 -2.390749 30.831382 -0.000000 -0.000001 0.000015 -0.000001 -0.000003 -0.000002 0.092589 -1.638883 -7.919136 0.220326 -1.416935 17.676410 0.000004 -0.000005 0.000012 0.000001 -0.000001 -0.000006 -0.292205 -11.498683 -2.485503 0.438727 -1.975081 25.044787 -0.000001 0.000008 -0.000003 -0.000000 -0.000001 0.000005 1.236506 -28.771431 20.809793 0.437479 -1.972409 25.008838 0.031393 -0.540479 6.649859 0.000003 0.000004 -0.000000 3.732253 6.657761 -6.792561 6.587349 8.384154 -6.484344 27.684051 14.484547 -10.181932 10.804957 0.453456 2.768424 -0.000001 0.000000 -0.000001 -82.911981 -6.697681 11.462583 1.689407 -14.085727 3.237782 23.342866 0.021792 8.366335 -4.192226 0.000000 -0.000013 -0.000001 0.000000 -0.000000 
-57.242592 72.659851 379.871613 36.548452 1.550224 -13.644207 11.027562 -7.051788 11.932090 7.392121 -3.158418 5.325896 7.382500 -2.925960 5.460287 7.874348 1.897050 -0.323777 -28.341931 11.402524 -2.055520 -0.000002 0.000000 -0.000000 1.439121 -18.868935 -3.459633 -49.258436 -39.534149 -29.421245 -0.000003 -9.226038 -0.000003 -14.475035 -1.456121 2.976592 -6.000711 -6.126816 4.616750 9.499925 4.322978 -1.619733 -7.335816 -0.421734 13.147357 0.000001 0.000003 0.000000 1.336513 29.461259 -20.170086 0.533977 2.445550 -24.630511 0.039337 0.678543 -6.636599 -0.000003 0.000000 -0.000002 -0.311563 11.574853 2.797596 0.535647 2.449183 -24.669627 0.000003 0.000001 0.000005 -0.000004 0.000001 -0.000000 0.121421 1.541266 8.017125 0.266307 1.747859 -17.324218 -0.000002 0.000006 0.000004 0.000001 -0.000000 0.000004 1.659783 -11.372240 6.182093 0.809922 2.973969 -30.462053 0.000003 -0.000016 -0.000018 -0.000002 0.000006 -0.000001 -1.090774 13.331079 28.795357 -26.282903 -8.073891 10.336850 0.000008 14.430665 0.000024 5.819886 16.673443 11.031977 -6.901951 8.181175 -4.018440 10.039235 -6.155577 0.906877 -5.504782 -5.510954 -14.718530 0.000000 0.000000 -0.000000 1.535019 10.186579 -0.653543 0.758114 -2.548841 33.123685 0.000005 0.000002 0.000017 0.000001 -0.000003 -0.000001 0.051245 -2.109401 -2.119871 0.280482 -1.593353 19.966019 -0.000004 0.000003 -0.000009 -0.000001 0.000001 -0.000006 0.647913 -11.502846 3.432689 0.524317 -2.148668 27.423834 0.000002 0.000002 0.000005 -0.000002 0.000001 -0.000005 2.601388 -27.681939 26.974615 0.523845 -2.147738 27.410874 0.031443 -0.540860 6.654688 0.000002 -0.000003 0.000003 11.794053 8.015641 -4.299552 15.653812 8.152420 -6.366649 24.964973 18.139879 -11.911152 1.209907 0.000011 0.000006 -0.000002 -0.000000 -0.000001 -84.533809 -6.721473 10.527018 5.224973 -13.908911 1.611752 34.799151 -3.139751 -2.108853 -6.205039 0.000002 0.000002 -0.000002 -0.000000 0.000000 
-53.847183 67.507111 389.002991 34.975486 5.959353 -13.804978 10.801222 -7.960591 11.945857 7.223811 -4.013847 5.873654 7.232034 -3.729508 6.032019 6.188309 1.728520 -0.383421 -30.711689 10.076163 -1.681305 -0.000001 0.000000 -0.000000 0.660743 -24.412505 -9.290357 -55.856078 -41.484991 -44.101661 0.000002 -10.152637 0.000004 -12.417369 -1.236741 1.180907 -6.000720 -6.126805 4.616743 9.499923 4.322993 -1.619712 -7.335831 -0.421730 13.147347 0.000003 0.000004 -0.000002 1.336502 29.461270 -20.170092 0.533980 2.445551 -24.630530 0.039350 0.678550 -6.636567 0.000000 0.000002 -0.000002 -0.311566 11.574864 2.797629 0.535651 2.449181 -24.669629 0.000008 -0.000003 0.000007 -0.000002 -0.000000 0.000008 0.121427 1.541260 8.017131 0.266297 1.747861 -17.324216 -0.000009 0.000007 0.000009 0.000001 0.000000 0.000006 1.659789 -11.372253 6.182090 0.809911 2.973980 -30.462046 -0.000003 -0.000011 -0.000006 -0.000001 0.000001 0.000002 -0.232162 9.219735 25.786353 -27.628894 -15.410590 9.578810 0.000012 18.091636 -0.000003 1.665081 17.432825 8.294818 -6.901947 8.181173 -4.018441 10.039225 -6.155571 0.906870 -5.504771 -5.510959 -14.718506 0.000001 -0.000001 0.000001 1.470277 8.686914 9.029339 0.939150 -2.806532 36.997373 0.000000 -0.000001 0.000015 -0.000001 -0.000003 -0.000001 0.089964 -2.905745 7.681104 0.397962 -1.885457 23.834864 0.000005 0.000001 -0.000002 0.000000 0.000001 -0.000002 2.116705 -11.312164 13.420626 0.685097 -2.433378 31.444053 0.000008 -0.000002 0.000015 -0.000001 0.000001 -0.000003 4.304341 -25.921239 37.219678 0.686195 -2.435177 31.469936 0.031518 -0.541537 6.662826 0.000001 -0.000002 0.000007 11.210117 9.807668 0.389751 33.301117 6.737166 -4.183737 19.750057 17.007827 -9.483227 2.296069 0.000002 -0.000015 -0.000001 -0.000003 0.000003 -92.629120 -9.670179 5.452368 30.074361 -12.196128 4.692883 29.233117 -6.247965 -12.679350 -3.422341 -0.000035 0.001806 -0.000000 -0.000000 -0.000000 
-50.879478 65.404945 396.171082 34.428456 7.524040 -14.242771 11.567914 -7.421843 11.057398 7.975854 -4.137370 6.322766 8.007346 -3.787849 6.470149 3.401775 1.480838 0.380930 -33.777177 9.209860 -1.320553 -0.000001 0.000001 -0.000000 -0.033081 -27.574100 -12.541954 -59.022813 -43.135107 -55.879253 0.000003 -13.359164 0.000007 -3.796583 -4.154556 0.203591 -6.000701 -6.126809 4.616752 9.499921 4.323003 -1.619728 -7.335831 -0.421743 13.147337 0.000001 -0.000001 -0.000001 1.336530 29.461259 -20.170088 0.533980 2.445555 -24.630526 0.039346 0.678534 -6.636603 -0.000000 0.000003 -0.000000 -0.311559 11.574860 2.797599 0.535632 2.449182 -24.669634 0.000006 -0.000008 -0.000016 0.000001 -0.000002 0.000005 0.121413 1.541260 8.017121 0.266297 1.747862 -17.324223 -0.000001 -0.000007 -0.000004 -0.000006 -0.000001 0.000001 1.659778 -11.372256 6.182081 0.809915 2.973978 -30.462056 0.000002 0.000000 -0.000008 -0.000001 0.000004 0.000002 0.088519 7.455607 23.858173 -30.081700 -18.136924 9.897455 0.000012 17.186177 -0.000002 -8.452569 18.279528 1.985346 -6.901954 8.181172 -4.018449 10.039225 -6.155565 0.906892 -5.504765 -5.510969 -14.718513 -0.000000 0.000000 0.000001 1.863627 7.358378 20.844837 1.182230 -3.102552 41.710746 -0.000000 -0.000003 0.000019 0.000001 -0.000003 0.000001 0.318987 -3.847465 19.612282 0.567018 -2.228986 28.541759 0.000001 -0.000003 -0.000009 -0.000001 0.000000 -0.000009 3.655168 -10.810260 25.534394 0.906998 -2.763397 36.335596 0.000005 0.000003 -0.000000 -0.000002 0.000001 -0.000001 5.541275 -24.122507 49.489338 0.910511 -2.768173 36.408743 0.031620 -0.542334 6.672718 -0.000003 -0.000002 0.000004 0.367181 9.396196 4.839467 55.799736 6.588624 -0.652224 14.040094 12.959200 -4.012791 4.804851 0.000003 -0.000001 -0.000001 -0.000001 0.000003 -95.071623 -13.728396 0.562758 49.922467 -10.198867 7.848990 13.913238 -3.992388 -17.465301 -2.827523 -0.219024 3.402626 -0.000000 -0.000000 -0.000000 
